<?xml version="1.0" encoding="UTF-8" standalone="no"?>
<!-- Generator: Adobe Illustrator 17.0.0, SVG Export Plug-In . SVG Version: 6.00 Build 0)  -->
<svg id="Layer_1" xmlns:rdf="http://www.w3.org/1999/02/22-rdf-syntax-ns#" xmlns="http://www.w3.org/2000/svg" enable-background="new 0 0 100 100" xml:space="preserve" height="72" viewBox="0 0 72 72" width="72" version="1.1" y="0px" x="0px" xmlns:cc="http://creativecommons.org/ns#" xmlns:dc="http://purl.org/dc/elements/1.1/"><metadata id="metadata6466"><rdf:RDF><cc:Work rdf:about=""><dc:format>image/svg+xml</dc:format><dc:type rdf:resource="http://purl.org/dc/dcmitype/StillImage"/><dc:title/></cc:Work></rdf:RDF></metadata><g id="White_1_" transform="translate(-14,-14)"><path id="path6460" d="m82.026 14h-64.052c-2.195 0-3.974 1.779-3.974 3.974v64.053c0 2.194 1.779 3.973 3.974 3.973h34.483v-27.882h-9.383v-10.866h9.383v-8.014c0-9.3 5.68-14.363 13.976-14.363 3.974 0 7.389 0.295 8.385 0.428v9.719l-5.754 0.003c-4.512 0-5.385 2.144-5.385 5.29v6.938h10.76l-1.401 10.866h-9.359v27.881h18.348c2.194 0 3.973-1.779 3.973-3.974v-64.052c0-2.195-1.779-3.974-3.974-3.974z"/></g></svg>
