<?xml version="1.0" encoding="UTF-8" standalone="no"?>
<!-- Generator: Adobe Illustrator 17.0.0, SVG Export Plug-In . SVG Version: 6.00 Build 0)  -->
<svg id="Layer_1" xmlns:rdf="http://www.w3.org/1999/02/22-rdf-syntax-ns#" xmlns="http://www.w3.org/2000/svg" enable-background="new 0 0 100 100" xml:space="preserve" height="72" viewBox="0 0 72 72" width="72" version="1.1" y="0px" x="0px" xmlns:cc="http://creativecommons.org/ns#" xmlns:dc="http://purl.org/dc/elements/1.1/"><metadata id="metadata25"><rdf:RDF><cc:Work rdf:about=""><dc:format>image/svg+xml</dc:format><dc:type rdf:resource="http://purl.org/dc/dcmitype/StillImage"/><dc:title/></cc:Work></rdf:RDF></metadata><g id="g3" transform="translate(-14,-14)"><g id="g5"><g id="g7" fill="#231f20"><path id="path9" d="m45.19 70.391c-0.696 0.984-1.355 1.469-1.985 1.469-0.42 0-0.659-0.246-0.735-0.734-0.03-0.101-0.03-0.484-0.03-1.22v-12.76h-3.138v13.704c0 1.225 0.104 2.051 0.277 2.576 0.313 0.878 1.011 1.289 2.023 1.289 1.154 0 2.34-0.697 3.587-2.129v1.891h3.143v-17.33h-3.142v13.244z"/><polygon id="polygon11" points="35.083 74.477 35.083 54.492 38.845 54.492 38.845 51.218 27.897 51.218 27.897 54.492 31.591 54.492 31.591 74.477"/><path id="path13" d="m49.281 39.34c1.023 0 1.513-0.81 1.513-2.431v-7.368c0-1.619-0.49-2.426-1.513-2.426-1.024 0-1.515 0.807-1.515 2.426v7.368c0.001 1.62 0.491 2.431 1.515 2.431z"/><path id="path15" d="m57.434 56.935c-1.154 0-2.23 0.632-3.243 1.88v-7.597h-3.141v23.259h3.141v-1.682c1.048 1.299 2.127 1.92 3.243 1.92 1.251 0 2.091-0.658 2.511-1.947 0.209-0.735 0.316-1.889 0.316-3.492v-6.901c0-1.64-0.107-2.786-0.316-3.483-0.421-1.299-1.26-1.957-2.511-1.957zm-0.313 12.587c0 1.565-0.461 2.337-1.366 2.337-0.516 0-1.04-0.246-1.565-0.771v-10.564c0.525-0.517 1.048-0.763 1.565-0.763 0.906 0 1.366 0.802 1.366 2.365v7.396z"/><path id="path17" d="m67.435 56.935c-1.602 0-2.854 0.591-3.76 1.778-0.668 0.875-0.971 2.229-0.971 4.08v6.072c0 1.84 0.342 3.209 1.009 4.074 0.907 1.183 2.157 1.775 3.801 1.775 1.64 0 2.927-0.621 3.797-1.877 0.38-0.559 0.628-1.188 0.733-1.883 0.028-0.315 0.067-1.013 0.067-2.023v-0.46h-3.205c0 1.26-0.039 1.957-0.068 2.128-0.179 0.839-0.631 1.259-1.403 1.259-1.078 0-1.602-0.8-1.602-2.404v-3.072h6.279v-3.59c0-1.852-0.315-3.205-0.972-4.08-0.879-1.187-2.129-1.777-3.705-1.777zm1.537 6.834h-3.139v-1.603c0-1.602 0.524-2.404 1.574-2.404 1.039 0 1.565 0.802 1.565 2.404v1.603z"/><path id="path19" d="m79 14h-58c-3.85 0-7 3.15-7 7v58c0 3.85 3.15 7 7 7h58c3.85 0 7-3.15 7-7v-58c0-3.85-3.15-7-7-7zm-22.42 10.47h3.163v12.892c0 0.746 0 1.133 0.039 1.235 0.07 0.492 0.318 0.743 0.744 0.743 0.634 0 1.301-0.492 2.004-1.486v-13.384h3.174v17.51h-3.174v-1.91c-1.263 1.449-2.468 2.153-3.625 2.153-1.022 0-1.727-0.415-2.044-1.303-0.175-0.529-0.281-1.368-0.281-2.604v-13.846zm-11.987 5.708c0-1.871 0.319-3.24 0.994-4.125 0.878-1.196 2.114-1.795 3.694-1.795 1.59 0 2.824 0.599 3.703 1.795 0.664 0.885 0.985 2.254 0.985 4.125v6.135c0 1.86-0.32 3.24-0.985 4.119-0.879 1.193-2.112 1.792-3.703 1.792-1.581 0-2.817-0.599-3.694-1.792-0.675-0.879-0.994-2.259-0.994-4.119v-6.135zm-8.486-11.696 2.499 9.227 2.399-9.227h3.558l-4.232 13.982v9.516h-3.52v-9.516c-0.318-1.688-1.022-4.158-2.15-7.435-0.742-2.18-1.515-4.37-2.256-6.547h3.702zm38.966 57.036c-0.634 2.763-2.896 4.801-5.616 5.104-6.444 0.72-12.965 0.724-19.457 0.72-6.493 0.004-13.014 0-19.457-0.72-2.721-0.304-4.979-2.342-5.614-5.104-0.905-3.936-0.905-8.232-0.905-12.282 0-4.054 0.01-8.347 0.916-12.284 0.634-2.762 2.893-4.799 5.614-5.103 6.443-0.722 12.964-0.724 19.457-0.722 6.492-0.002 13.013 0 19.457 0.722 2.719 0.304 4.98 2.341 5.615 5.103 0.905 3.938 0.9 8.23 0.9 12.284 0.001 4.05-0.004 8.346-0.91 12.282z"/></g></g></g></svg>
