<?xml version="1.0" encoding="UTF-8" standalone="no"?>
<!-- Generator: Adobe Illustrator 17.0.0, SVG Export Plug-In . SVG Version: 6.00 Build 0)  -->
<svg id="Layer_1" xmlns:rdf="http://www.w3.org/1999/02/22-rdf-syntax-ns#" xmlns="http://www.w3.org/2000/svg" enable-background="new 0 0 100 100" xml:space="preserve" height="69.475" viewBox="0 0 73.603271 69.475349" width="73.603" version="1.1" y="0px" x="0px" xmlns:cc="http://creativecommons.org/ns#" xmlns:dc="http://purl.org/dc/elements/1.1/"><metadata id="metadata5310"><rdf:RDF><cc:Work rdf:about=""><dc:format>image/svg+xml</dc:format><dc:type rdf:resource="http://purl.org/dc/dcmitype/StillImage"/><dc:title/></cc:Work></rdf:RDF></metadata><g id="g5298" transform="translate(-13.198 -15.263)"><path id="path5300" d="m52.02 35.981c-4.333 0.371-8.663 0.795-12.852 2.047-8.593 2.574-12.979 8.387-12.838 16.969 0.128 7.734 4.601 12.865 12.285 13.684 4.953 0.527 9.708-0.293 13.728-3.584 1.151-0.941 2.23-1.971 3.249-2.875 1.665 1.838 3.229 3.666 4.906 5.387 1.063 1.09 2.088 1.047 3.231 0.068 2.144-1.832 4.275-3.68 6.407-5.527 1.152-1 1.302-1.889 0.268-3.059-2.529-2.867-3.404-6.16-3.337-9.955 0.118-6.76 0.064-13.529-0.161-20.285-0.171-5.197-2.768-9.066-7.554-11.184-7.35-3.25-14.798-3.178-22.127 0.051-4.949 2.184-7.977 6.076-9.16 11.377-0.388 1.742 0.076 2.392 1.83 2.602 2.529 0.303 5.055 0.627 7.581 0.957 1.393 0.182 2.168-0.236 2.47-1.631 0.899-4.154 5.005-6.209 8.898-5.631 2.513 0.373 4.387 1.963 4.771 4.371 0.312 1.959 0.289 3.973 0.413 5.941-0.331 0.09-0.456 0.145-0.586 0.156-0.474 0.047-0.948 0.08-1.422 0.121zm-0.185 19.772c-1.262 1.906-2.879 3.281-5.155 3.664-3.688 0.619-6.401-1.754-6.672-5.738-0.355-5.217 2.309-8.791 7.459-9.781 2.077-0.4 4.213-0.496 6.422-0.742 0.021 4.505 0.473 8.777-2.054 12.597z"/><path id="path5302" d="m75.38 70.892c-0.357 0.106-0.698 0.262-1.042 0.408-4.914 2.096-9.966 3.748-15.213 4.783-4.954 0.979-9.942 1.473-14.99 1.006-6.205-0.57-11.993-2.566-17.527-5.324-3.522-1.754-6.962-3.672-10.447-5.502-1.093-0.574-2.095-0.404-2.656 0.391-0.554 0.783-0.362 1.814 0.616 2.584 3.468 2.729 6.845 5.594 10.478 8.086 6.773 4.645 14.24 7.418 23.981 7.414 7.914-0.199 16.618-2.611 24.675-7.299 1.434-0.834 2.808-1.785 4.148-2.766 1.021-0.748 1.24-1.848 0.718-2.789-0.504-0.91-1.62-1.324-2.741-0.992z"/><path id="path5304" d="m82.865 63.228c-3.83-0.387-7.529 0.078-10.761 2.443-0.751 0.547-1.186 1.287-0.776 2.203 0.391 0.873 1.19 0.986 2.077 0.861 1.678-0.236 3.363-0.428 5.046-0.639 0.004 0.043 0.008 0.086 0.012 0.131 0.612 0 1.223-0.008 1.833 0.002 0.707 0.012 1.084 0.32 0.921 1.08-0.179 0.828-0.3 1.674-0.55 2.479-0.481 1.555-1.103 3.068-1.519 4.637-0.131 0.494 0.031 1.324 0.381 1.621 0.399 0.336 1.175 0.383 1.754 0.305 0.408-0.053 0.806-0.477 1.13-0.811 2.582-2.672 3.898-5.943 4.29-9.576 0.385-3.57-0.248-4.373-3.838-4.736z"/></g></svg>
