<?xml version="1.0" encoding="UTF-8" standalone="no"?>
<svg id="svg5378" xmlns:rdf="http://www.w3.org/1999/02/22-rdf-syntax-ns#" xmlns="http://www.w3.org/2000/svg" height="44" width="43" version="1.1" xmlns:cc="http://creativecommons.org/ns#" xmlns:xlink="http://www.w3.org/1999/xlink" viewBox="0 0 43 44" xmlns:dc="http://purl.org/dc/elements/1.1/">
 <metadata id="metadata5396">
  <rdf:RDF>
   <cc:Work rdf:about="">
    <dc:format>image/svg+xml</dc:format>
    <dc:type rdf:resource="http://purl.org/dc/dcmitype/StillImage"/>
    <dc:title/>
   </cc:Work>
  </rdf:RDF>
 </metadata>
 <defs id="defs5380">
  <path id="a" d="m44.5 20h-20.5v8.5h11.8c-1.1 5.4-5.7 8.5-11.8 8.5-7.2 0-13-5.8-13-13s5.8-13 13-13c3.1 0 5.9 1.1 8.1 2.9l6.4-6.4c-3.9-3.4-8.9-5.5-14.5-5.5-12.2 0-22 9.8-22 22s9.8 22 22 22c11 0 21-8 21-22 0-1.3-0.2-2.7-0.5-4z"/>
 </defs>
 <clipPath id="b">
  <use id="use5384" xlink:href="#a" height="100%" width="100%" y="0" x="0" overflow="visible"/>
 </clipPath>
 <path id="path5386" d="m0 37v-26l17 13z" clip-path="url(#b)" transform="translate(-2,-2)" fill="#fbbc05"/>
 <path id="path5388" d="m0 11 17 13 7-6.1 24-3.9v-14h-48z" clip-path="url(#b)" transform="translate(-2,-2)" fill="#ea4335"/>
 <path id="path5390" d="m0 37 30-23 7.9 1 10.1-15v48h-48z" clip-path="url(#b)" transform="translate(-2,-2)" fill="#34a853"/>
 <path id="path5392" d="m48 48-31-24-4-3 35-10z" clip-path="url(#b)" transform="translate(-2,-2)" fill="#4285f4"/>
</svg>
