<?xml version="1.0" encoding="UTF-8" standalone="no"?>
<!-- Created with Inkscape (http://www.inkscape.org/) -->
<svg id="svg2" xmlns:rdf="http://www.w3.org/1999/02/22-rdf-syntax-ns#" xmlns="http://www.w3.org/2000/svg" height="126.35mm" viewBox="0 0 447.9559 447.7054" width="126.42mm" version="1.1" xmlns:cc="http://creativecommons.org/ns#" xmlns:dc="http://purl.org/dc/elements/1.1/">
 <metadata id="metadata7">
  <rdf:RDF>
   <cc:Work rdf:about="">
    <dc:format>image/svg+xml</dc:format>
    <dc:type rdf:resource="http://purl.org/dc/dcmitype/StillImage"/>
    <dc:title/>
   </cc:Work>
  </rdf:RDF>
 </metadata>
 <g id="g4802" transform="matrix(-1 0 0 -1 428.97 430.32)">
  <path id="path4136" fill="#f2f2f2" d="m64.217 65.55a199.55 199.55 0 0 1 282.2 0.0071l-141.11 141.1z"/>
  <path id="path4136-8" fill="#e6e6e6" d="m148.3 344.29a149.66 149.66 0 0 1 -80.993 -80.99l138.26-57.27z"/>
  <path id="path4136-9" fill="#f9f9f9" d="m364.26 47.485a224.49 224.49 0 0 1 61.44 202.54 224.49 224.49 0 0 1 -134.27 163.61l-85.91-207.4z"/>
  <path id="path4136-4" fill="#b3b3b3" d="m254.07 323.53a127.18 127.18 0 0 1 -32.071 8.5935l-16.6-126.1z"/>
  <path id="path4136-5" fill="#ececec" d="m44.307 272.89a174.6 174.6 0 0 1 37.853 -190.29l123.46 123.47z"/>
  <path id="path4136-8-6" fill="#ccc" d="m222.76 337.59a132.48 132.48 0 0 1 -67.99 -8.95l50.7-122.4z"/>
 </g>
 <circle id="path4226" transform="rotate(45)" cy=".58815" cx="315.83" r="49.601" fill="#1f1f1f"/>
</svg>
