<?xml version="1.0" encoding="UTF-8" standalone="no"?>
<!-- Created with Inkscape (http://www.inkscape.org/) -->
<svg id="svg2" xmlns:rdf="http://www.w3.org/1999/02/22-rdf-syntax-ns#" xmlns="http://www.w3.org/2000/svg" height="126.35mm" viewBox="0 0 447.9559 447.7054" width="126.42mm" version="1.1" xmlns:cc="http://creativecommons.org/ns#" xmlns:dc="http://purl.org/dc/elements/1.1/">
 <metadata id="metadata7">
  <rdf:RDF>
   <cc:Work rdf:about="">
    <dc:format>image/svg+xml</dc:format>
    <dc:type rdf:resource="http://purl.org/dc/dcmitype/StillImage"/>
    <dc:title/>
   </cc:Work>
  </rdf:RDF>
 </metadata>
 <g id="g4822" transform="matrix(0 -1 1 0 -.18630 446.66)">
  <path id="path4136" fill="#f2f2f2" d="m364.75 364.77a199.55 199.55 0 0 1 -282.2 -0.007l141.1-141.1z"/>
  <path id="path4136-8" fill="#e6e6e6" d="m280.67 86.022a149.66 149.66 0 0 1 80.992 80.99l-138.26 57.28z"/>
  <path id="path4136-9" fill="#f9f9f9" d="m64.713 382.83a224.49 224.49 0 0 1 -61.442 -202.54 224.49 224.49 0 0 1 134.27 -163.6l85.908 207.4z"/>
  <path id="path4136-5" fill="#ececec" d="m384.67 157.43a174.6 174.6 0 0 1 -37.86 190.28l-123.46-123.46z"/>
 </g>
 <circle id="path4226" transform="rotate(45)" cy=".58815" cx="315.83" r="49.601" fill="#1f1f1f"/>
</svg>
