<?xml version="1.0" encoding="UTF-8" standalone="no"?>
<!-- Generator: Adobe Illustrator 19.1.0, SVG Export Plug-In . SVG Version: 6.00 Build 0)  -->

<svg
   xmlns:dc="http://purl.org/dc/elements/1.1/"
   xmlns:cc="http://creativecommons.org/ns#"
   xmlns:rdf="http://www.w3.org/1999/02/22-rdf-syntax-ns#"
   xmlns:svg="http://www.w3.org/2000/svg"
   xmlns="http://www.w3.org/2000/svg"
   xmlns:sodipodi="http://sodipodi.sourceforge.net/DTD/sodipodi-0.dtd"
   xmlns:inkscape="http://www.inkscape.org/namespaces/inkscape"
   version="1.1"
   id="Capa_1"
   x="0px"
   y="0px"
   viewBox="0 0 50.000001 50.000001"
   xml:space="preserve"
   inkscape:version="0.91 r13725"
   sodipodi:docname="delete-icon.svg"
   width="50"
   height="50"><metadata
     id="metadata73"><rdf:RDF><cc:Work
         rdf:about=""><dc:format>image/svg+xml</dc:format><dc:type
           rdf:resource="http://purl.org/dc/dcmitype/StillImage" /><dc:title></dc:title></cc:Work></rdf:RDF></metadata><defs
     id="defs71" /><sodipodi:namedview
     pagecolor="#ffffff"
     bordercolor="#666666"
     borderopacity="1"
     objecttolerance="10"
     gridtolerance="10"
     guidetolerance="10"
     inkscape:pageopacity="0"
     inkscape:pageshadow="2"
     inkscape:window-width="732"
     inkscape:window-height="480"
     id="namedview69"
     showgrid="false"
     inkscape:zoom="0.47981134"
     inkscape:cx="184.89598"
     inkscape:cy="184.89528"
     inkscape:window-x="0"
     inkscape:window-y="0"
     inkscape:window-maximized="0"
     inkscape:current-layer="Capa_1"
     fit-margin-top="0"
     fit-margin-left="0"
     fit-margin-right="0"
     fit-margin-bottom="0" /><g
     id="g3"
     transform="matrix(0.09560891,-0.09560903,0.09560891,0.09560903,-22.02615,25.000016)"><g
       id="g5"><path
         d="m 465.167,211.614 -184.922,0 0,-184.923 c 0,-8.424 -11.439,-26.69 -34.316,-26.69 -22.877,0 -34.316,18.267 -34.316,26.69 l 0,184.924 -184.923,0 C 18.267,211.614 0,223.053 0,245.929 c 0,22.876 18.267,34.316 26.69,34.316 l 184.924,0 0,184.924 c 0,8.422 11.438,26.69 34.316,26.69 22.878,0 34.316,-18.268 34.316,-26.69 l 0,-184.924 184.924,0 c 8.422,0 26.69,-11.438 26.69,-34.316 0,-22.878 -18.27,-34.315 -26.693,-34.315 z"
         id="path7"
         inkscape:connector-curvature="0" /></g><g
       id="g9" /><g
       id="g11" /><g
       id="g13" /><g
       id="g15" /><g
       id="g17" /><g
       id="g19" /><g
       id="g21" /><g
       id="g23" /><g
       id="g25" /><g
       id="g27" /><g
       id="g29" /><g
       id="g31" /><g
       id="g33" /><g
       id="g35" /><g
       id="g37" /></g><g
     id="g39"
     transform="translate(-61.034013,-380.82527)" /><g
     id="g41"
     transform="translate(-61.034013,-380.82527)" /><g
     id="g43"
     transform="translate(-61.034013,-380.82527)" /><g
     id="g45"
     transform="translate(-61.034013,-380.82527)" /><g
     id="g47"
     transform="translate(-61.034013,-380.82527)" /><g
     id="g49"
     transform="translate(-61.034013,-380.82527)" /><g
     id="g51"
     transform="translate(-61.034013,-380.82527)" /><g
     id="g53"
     transform="translate(-61.034013,-380.82527)" /><g
     id="g55"
     transform="translate(-61.034013,-380.82527)" /><g
     id="g57"
     transform="translate(-61.034013,-380.82527)" /><g
     id="g59"
     transform="translate(-61.034013,-380.82527)" /><g
     id="g61"
     transform="translate(-61.034013,-380.82527)" /><g
     id="g63"
     transform="translate(-61.034013,-380.82527)" /><g
     id="g65"
     transform="translate(-61.034013,-380.82527)" /><g
     id="g67"
     transform="translate(-61.034013,-380.82527)" /></svg>