<?xml version="1.0" encoding="UTF-8" standalone="no"?>
<!-- Generator: Adobe Illustrator 16.0.0, SVG Export Plug-In . SVG Version: 6.00 Build 0)  -->
<svg id="Capa_1" xmlns:rdf="http://www.w3.org/1999/02/22-rdf-syntax-ns#" xmlns="http://www.w3.org/2000/svg" xml:space="preserve" height="40" viewBox="0 0 40 40.000464" width="40" version="1.1" y="0px" x="0px" xmlns:cc="http://creativecommons.org/ns#" xmlns:dc="http://purl.org/dc/elements/1.1/"><metadata id="metadata4174"><rdf:RDF><cc:Work rdf:about=""><dc:format>image/svg+xml</dc:format><dc:type rdf:resource="http://purl.org/dc/dcmitype/StillImage"/><dc:title/></cc:Work></rdf:RDF></metadata><g id="g4137" transform="matrix(.092999 0 0 .092999 -0.000186 0)"><path id="LinkedIn__x28_alt_x29_" d="m398.36 0h-366.58c-17.551 0-31.778 13.793-31.778 30.817v368.47c0 17.025 14.232 30.83 31.78 30.83h366.57c17.549 0 31.76-13.814 31.76-30.83v-368.47c0.01-17.022-14.21-30.82-31.75-30.82zm-267.96 360.04h-64.987v-194.19h64.987v194.19zm-32.487-220.72h-0.437c-21.793 0-35.92-14.904-35.92-33.563 0-19.035 14.542-33.535 36.767-33.535 22.227 0 35.899 14.496 36.331 33.535 0 18.663-14.099 33.563-36.741 33.563zm266.75 220.72h-64.966v-103.9c0-26.107-9.413-43.921-32.907-43.921-17.973 0-28.642 12.018-33.327 23.621-1.736 4.144-2.166 9.94-2.166 15.728v108.47h-64.954s0.85-175.98 0-194.19h64.964v27.531c8.624-13.229 24.035-32.1 58.534-32.1 42.76 0 74.822 27.739 74.822 87.414v111.35zm-133.78-166.05c0.111-0.182 0.266-0.401 0.42-0.614v0.614h-0.42z"/></g></svg>
