<?xml version="1.0" encoding="UTF-8" standalone="no"?>
<!-- Generator: Adobe Illustrator 16.0.0, SVG Export Plug-In . SVG Version: 6.00 Build 0)  -->
<svg id="Capa_1" xmlns:rdf="http://www.w3.org/1999/02/22-rdf-syntax-ns#" xmlns="http://www.w3.org/2000/svg" xml:space="preserve" height="39.357" viewBox="0 0 50 39.357185" width="50" version="1.1" y="0px" x="0px" xmlns:cc="http://creativecommons.org/ns#" xmlns:dc="http://purl.org/dc/elements/1.1/"><metadata id="metadata14"><rdf:RDF><cc:Work rdf:about=""><dc:format>image/svg+xml</dc:format><dc:type rdf:resource="http://purl.org/dc/dcmitype/StillImage"/><dc:title/></cc:Work></rdf:RDF></metadata><g id="g3" transform="matrix(.081699 0 0 .081699 0 -5.3214)"><g id="tick"><g id="g6"><path id="path8" d="m595.6 81.553c-21.892-21.891-57.362-21.891-79.253 0l-333.32 333.32-88.629-76.13c-21.592-21.593-56.596-21.593-78.207 0-21.592 21.592-21.592 56.614 0 78.206l132.41 113.73c21.592 21.593 56.596 21.593 78.207 0 2.167-2.166 3.979-4.576 5.716-6.985 0.317-0.299 0.672-0.505 0.99-0.804l362.09-362.1c21.871-21.872 21.871-57.361-0.001-79.233z"/></g></g></g></svg>
